<svg width="28" height="30" viewBox="0 0 28 30" fill="none" xmlns="http://www.w3.org/2000/svg">
<rect x="3" y="3" width="9" height="2" rx="1" fill="#5F6DA7"/>
<rect x="3" y="8" width="9" height="2" rx="1" fill="#5F6DA7"/>
<rect x="3" y="13" width="19" height="2" rx="1" fill="#5F6DA7"/>
<path d="M6.86864 18.996L4.45989 22.0774L6.86864 25.2164C6.98764 25.3604 6.99954 25.6138 6.80922 25.8212C6.6189 26.0285 6.12525 26.0532 6.00625 25.9075C5.1042 24.8036 3.25848 22.5382 3.09195 22.3078C2.92542 22.0774 3.02256 21.9238 3.09195 21.8758L6.00625 18.1897C6.12525 17.9881 6.63074 17.8902 6.86864 18.1897C7.10654 18.4892 6.96777 18.852 6.86864 18.996Z" fill="#5F6DA7"/>
<path d="M10.1314 18.996L12.5401 22.0774L10.1314 25.2164C10.0124 25.3604 10.0005 25.6138 10.1908 25.8212C10.3811 26.0285 10.8748 26.0532 10.9938 25.9075C11.8958 24.8036 13.7415 22.5382 13.908 22.3078C14.0746 22.0774 13.9774 21.9238 13.908 21.8758L10.9938 18.1897C10.8748 17.9881 10.3693 17.8902 10.1314 18.1897C9.89346 18.4892 10.0322 18.852 10.1314 18.996Z" fill="#5F6DA7"/>
<rect x="7.82031" y="18.3793" width="1.06462" height="7.16587" rx="0.532312" transform="rotate(8.24916 7.82031 18.3793)" fill="#5F6DA7"/>
<path d="M1.00034 27.8638V2.06921C1.00034 1.24057 1.51724 1.01114 1.7757 1H13.147V9.01905C13.2762 10.4625 14.5361 10.957 15.1499 11.0238H23V16.2362C23 16.3698 22.8923 16.4255 22.8385 16.4367H20.3187C20.0086 16.6238 19.608 17.027 19.4465 17.2052H18.7035C18.4709 17.2052 18.2619 17.3165 18.1866 17.3722L16.1837 19.5775C15.9769 19.6042 15.9468 19.8113 15.9575 19.9116V20.7803C15.389 21.1545 15.2038 21.7159 15.1822 21.9498V24.8567C15.1564 24.9903 15.2576 25.1128 15.3114 25.1574L15.9575 25.9259V26.6944C15.9058 27.1755 16.819 28.0977 17.282 28.4986C17.2562 28.7659 17.1851 28.9219 17.1528 28.9664H2.29253C1.23293 29.1803 0.989569 28.3204 1.00034 27.8638Z" stroke="#5F6DA7"/>
<path d="M15 8.26077V0L23 8.99584H15.7634C15.2748 9.05184 15.0509 8.52913 15 8.26077Z" fill="#5F6DA7"/>
<path d="M17.1642 22.197H18.2806L18.5104 21.6765C18.5893 21.5724 18.5433 21.4596 18.5104 21.4162L17.8209 20.7655C17.7158 20.6354 17.7771 20.451 17.8209 20.3751L19.3313 18.8459C19.5152 18.7158 19.6925 18.7917 19.7582 18.8459L20.3493 19.4966C20.4018 19.6268 20.5025 19.6376 20.5463 19.6268L21.0388 19.4316C21.1439 19.4316 21.1701 19.3665 21.1701 19.3339L21.1373 18.2277C21.1373 18.0976 21.2905 18.0434 21.3672 18.0325L23.6985 18C23.8299 18 23.8627 18.1518 23.8627 18.2277L23.8299 19.2038C23.8036 19.2559 23.8627 19.3123 23.8955 19.3339L24.3881 19.6268C24.4669 19.7048 24.5522 19.6593 24.5851 19.6268L25.3075 18.8785C25.4388 18.8004 25.5811 18.8459 25.6358 18.8785L27.1463 20.3425C27.2448 20.4076 27.2776 20.4293 27.2776 20.4727V20.6028C27.2776 20.6549 27.2119 20.7547 27.1791 20.798L26.5881 21.3837C26.4567 21.4097 26.4677 21.5463 26.4896 21.6114C26.5333 21.7199 26.6275 21.9628 26.6537 22.0669C26.68 22.171 26.7303 22.197 26.7522 22.197H27.803C27.9606 22.197 28 22.3055 28 22.3597V24.6697C28 24.7738 27.9124 24.7999 27.8687 24.7999H26.9821C26.8245 24.7738 26.7194 24.8975 26.6866 24.9625L26.4567 25.3855C26.3779 25.4636 26.4239 25.5482 26.4567 25.5807L27.1791 26.1989C27.2316 26.2249 27.2667 26.2965 27.2776 26.329V26.4917C27.2776 26.5438 27.2557 26.5785 27.2448 26.5893L25.7015 28.0859C25.7015 28.164 25.6358 28.2052 25.603 28.2161H25.4716C25.3928 28.2421 25.3512 28.2052 25.3403 28.1835L24.6507 27.4678C24.5982 27.3897 24.4537 27.3918 24.3881 27.4027L23.9612 27.5654C23.8824 27.5654 23.8627 27.6521 23.8627 27.6955V28.8342C23.8627 28.9644 23.7532 28.9969 23.6985 28.9969H21.4C21.2161 29.0229 21.1701 28.8776 21.1701 28.8017L21.203 27.8582C21.203 27.7541 21.1373 27.663 21.1045 27.6304L20.6119 27.3702C20.5857 27.3181 20.5134 27.3485 20.4806 27.3702L19.7254 28.151C19.6991 28.2031 19.6488 28.2161 19.6269 28.2161H19.5284C19.4758 28.2161 19.397 28.1727 19.3642 28.151L17.9522 26.7195C17.8734 26.7195 17.81 26.611 17.7881 26.5568V26.3941C17.7881 26.29 17.81 26.2423 17.8209 26.2314L18.5104 25.6133C18.5893 25.5872 18.5871 25.494 18.5761 25.4506L18.3463 24.8649H17.2299C17.0722 24.8649 17.0109 24.7782 17 24.7348V22.3923C17 22.2881 17.1095 22.2187 17.1642 22.197Z" fill="#5F6DA7"/>
</svg>
