<svg width="128" height="114" viewBox="0 0 128 114" fill="none" xmlns="http://www.w3.org/2000/svg">
<path d="M111.642 13.4153H17.0382C3.87896 15.6487 0.921851 27.3186 0.921875 32.1969H127.759C127.291 19.9166 119.111 14.9374 111.642 13.4153Z" fill="#4A5997"/>
<path d="M127.759 67.9302H0.921875C0.921875 82.5121 11.3474 87.1356 19.5273 88.054H111.286C122.668 86.4243 127.759 77.1772 127.759 67.9302Z" fill="#4A5997"/>
<rect x="1.17578" y="13.6714" width="126.325" height="74.1264" rx="18.5" stroke="#4A5997"/>
<path d="M53.718 0.614219C51.4336 1.43318 46.2934 10.1687 44.5801 13.1715H91.4121C91.4121 13.1715 85.1298 1.43317 83.702 0.614219C82.2742 -0.204735 56.0025 -0.204745 53.718 0.614219Z" fill="#4A5997"/>
<circle cx="64.338" cy="51.4664" r="23.7208" fill="#4A5997" stroke="white" stroke-width="5"/>
<rect x="15.7988" y="8.78076" width="15.1229" height="7.31751" rx="3.65875" fill="#4A5997"/>
<circle cx="116.619" cy="22.7619" r="3.55656" fill="white"/>
<path d="M18.3164 93.6632H21.6289C22.5247 93.6632 23.2122 93.7335 23.6914 93.8741C24.1757 94.0148 24.5377 94.2179 24.7773 94.4835C25.0221 94.7491 25.1861 95.0721 25.2695 95.4523C25.358 95.8273 25.4023 96.4106 25.4023 97.2023V98.3038C25.4023 99.1111 25.319 99.6997 25.1523 100.069C24.9856 100.439 24.6783 100.723 24.2304 100.921C23.7877 101.119 23.207 101.218 22.4882 101.218H21.6054V106.312H18.3164V93.6632ZM21.6054 95.8273V99.046C21.6992 99.0512 21.7799 99.0538 21.8476 99.0538C22.1497 99.0538 22.358 98.9809 22.4726 98.8351C22.5924 98.684 22.6523 98.3741 22.6523 97.9054V96.8663C22.6523 96.434 22.5846 96.1528 22.4492 96.0226C22.3138 95.8924 22.0325 95.8273 21.6054 95.8273ZM33.9101 93.6632V106.312H30.621V100.999H29.6367V106.312H26.3476V93.6632H29.6367V98.1866H30.621V93.6632H33.9101ZM42.7539 101.069C42.7539 102.34 42.7226 103.241 42.6601 103.773C42.6028 104.299 42.4153 104.78 42.0976 105.218C41.7851 105.655 41.3606 105.991 40.8242 106.226C40.2877 106.46 39.6627 106.577 38.9492 106.577C38.2721 106.577 37.6627 106.468 37.121 106.249C36.5846 106.025 36.1523 105.692 35.8242 105.249C35.496 104.806 35.3007 104.325 35.2382 103.804C35.1757 103.283 35.1445 102.372 35.1445 101.069V98.9054C35.1445 97.6346 35.1731 96.7361 35.2304 96.2101C35.2929 95.6788 35.4804 95.1945 35.7929 94.757C36.1106 94.3195 36.5377 93.9835 37.0742 93.7491C37.6106 93.5148 38.2356 93.3976 38.9492 93.3976C39.6263 93.3976 40.233 93.5096 40.7695 93.7335C41.3111 93.9523 41.746 94.283 42.0742 94.7257C42.4023 95.1684 42.5976 95.6502 42.6601 96.171C42.7226 96.6919 42.7539 97.6033 42.7539 98.9054V101.069ZM39.4648 96.9132C39.4648 96.3247 39.4309 95.9497 39.3632 95.7882C39.3007 95.6215 39.1679 95.5382 38.9648 95.5382C38.7929 95.5382 38.6601 95.6059 38.5664 95.7413C38.4778 95.8715 38.4335 96.2622 38.4335 96.9132V102.819C38.4335 103.554 38.4622 104.007 38.5195 104.179C38.582 104.351 38.7226 104.437 38.9414 104.437C39.1653 104.437 39.3085 104.338 39.371 104.14C39.4335 103.942 39.4648 103.47 39.4648 102.726V96.9132ZM50.6132 93.6632V96.1945H48.6601V106.312H45.371V96.1945H43.4257V93.6632H50.6132ZM58.8789 101.069C58.8789 102.34 58.8476 103.241 58.7851 103.773C58.7278 104.299 58.5403 104.78 58.2226 105.218C57.9101 105.655 57.4856 105.991 56.9492 106.226C56.4127 106.46 55.7877 106.577 55.0742 106.577C54.3971 106.577 53.7877 106.468 53.246 106.249C52.7096 106.025 52.2773 105.692 51.9492 105.249C51.621 104.806 51.4257 104.325 51.3632 103.804C51.3007 103.283 51.2695 102.372 51.2695 101.069V98.9054C51.2695 97.6346 51.2981 96.7361 51.3554 96.2101C51.4179 95.6788 51.6054 95.1945 51.9179 94.757C52.2356 94.3195 52.6627 93.9835 53.1992 93.7491C53.7356 93.5148 54.3606 93.3976 55.0742 93.3976C55.7513 93.3976 56.358 93.5096 56.8945 93.7335C57.4361 93.9523 57.871 94.283 58.1992 94.7257C58.5273 95.1684 58.7226 95.6502 58.7851 96.171C58.8476 96.6919 58.8789 97.6033 58.8789 98.9054V101.069ZM55.5898 96.9132C55.5898 96.3247 55.5559 95.9497 55.4882 95.7882C55.4257 95.6215 55.2929 95.5382 55.0898 95.5382C54.9179 95.5382 54.7851 95.6059 54.6914 95.7413C54.6028 95.8715 54.5585 96.2622 54.5585 96.9132V102.819C54.5585 103.554 54.5872 104.007 54.6445 104.179C54.707 104.351 54.8476 104.437 55.0664 104.437C55.2903 104.437 55.4335 104.338 55.496 104.14C55.5585 103.942 55.5898 103.47 55.5898 102.726V96.9132ZM67.6601 98.3195H64.371V97.171C64.371 96.4471 64.3398 95.9939 64.2773 95.8116C64.2148 95.6294 64.0664 95.5382 63.832 95.5382C63.6289 95.5382 63.4908 95.6163 63.4179 95.7726C63.345 95.9288 63.3085 96.3299 63.3085 96.9757V103.046C63.3085 103.614 63.345 103.989 63.4179 104.171C63.4908 104.348 63.6367 104.437 63.8554 104.437C64.095 104.437 64.2565 104.335 64.3398 104.132C64.4283 103.929 64.4726 103.533 64.4726 102.944V101.444H63.8085V99.5226H67.6601V106.312H65.5898L65.2851 105.405C65.0611 105.796 64.7773 106.09 64.4335 106.288C64.095 106.481 63.694 106.577 63.2304 106.577C62.6783 106.577 62.1601 106.444 61.6757 106.179C61.1966 105.908 60.832 105.575 60.582 105.179C60.332 104.783 60.1757 104.369 60.1132 103.937C60.0507 103.499 60.0195 102.845 60.0195 101.976V98.2179C60.0195 97.0096 60.0846 96.132 60.2148 95.5851C60.345 95.0382 60.7174 94.5382 61.332 94.0851C61.9518 93.6267 62.7513 93.3976 63.7304 93.3976C64.694 93.3976 65.4934 93.5955 66.1289 93.9913C66.7643 94.3872 67.1783 94.8585 67.371 95.4054C67.5638 95.9471 67.6601 96.7361 67.6601 97.7726V98.3195ZM68.9414 93.6632H71.2695C72.8216 93.6632 73.871 93.7231 74.4179 93.8429C74.97 93.9627 75.4179 94.27 75.7617 94.7648C76.1106 95.2544 76.2851 96.0382 76.2851 97.1163C76.2851 98.1007 76.1627 98.7622 75.9179 99.1007C75.6731 99.4392 75.1914 99.6424 74.4726 99.7101C75.1236 99.8715 75.5611 100.088 75.7851 100.359C76.0091 100.629 76.1471 100.879 76.1992 101.109C76.2565 101.332 76.2851 101.955 76.2851 102.976V106.312H73.2304V102.109C73.2304 101.431 73.1757 101.012 73.0664 100.851C72.9622 100.689 72.6835 100.609 72.2304 100.609V106.312H68.9414V93.6632ZM72.2304 95.8273V98.6398C72.6002 98.6398 72.858 98.5903 73.0039 98.4913C73.1549 98.3872 73.2304 98.0564 73.2304 97.4991V96.8038C73.2304 96.4028 73.1575 96.1398 73.0117 96.0148C72.871 95.8898 72.6106 95.8273 72.2304 95.8273ZM83.246 93.6632L85.1289 106.312H81.7617L81.5976 104.038H80.4179L80.2226 106.312H76.8164L78.4882 93.6632H83.246ZM81.5039 101.796C81.3372 100.364 81.1705 98.5955 81.0039 96.4913C80.6705 98.908 80.4622 100.676 80.3789 101.796H81.5039ZM85.6914 93.6632H89.0039C89.8997 93.6632 90.5872 93.7335 91.0664 93.8741C91.5507 94.0148 91.9127 94.2179 92.1523 94.4835C92.3971 94.7491 92.5612 95.0721 92.6445 95.4523C92.733 95.8273 92.7773 96.4106 92.7773 97.2023V98.3038C92.7773 99.1111 92.694 99.6997 92.5273 100.069C92.3606 100.439 92.0533 100.723 91.6054 100.921C91.1627 101.119 90.582 101.218 89.8632 101.218H88.9804V106.312H85.6914V93.6632ZM88.9804 95.8273V99.046C89.0742 99.0512 89.1549 99.0538 89.2226 99.0538C89.5247 99.0538 89.733 98.9809 89.8476 98.8351C89.9674 98.684 90.0273 98.3741 90.0273 97.9054V96.8663C90.0273 96.434 89.9596 96.1528 89.8242 96.0226C89.6888 95.8924 89.4075 95.8273 88.9804 95.8273ZM101.285 93.6632V106.312H97.996V100.999H97.0117V106.312H93.7226V93.6632H97.0117V98.1866H97.996V93.6632H101.285ZM109.621 93.6632L107.223 101.734V106.312H104.176V101.734L101.863 93.6632H104.887C105.361 96.1267 105.626 97.7856 105.684 98.6398C105.866 97.2908 106.171 95.632 106.598 93.6632H109.621Z" fill="#4A5997"/>
</svg>
