<svg width="132" height="93" viewBox="0 0 132 93" fill="none" xmlns="http://www.w3.org/2000/svg">
<g clip-path="url(#clip0)">
<rect width="132" height="93" fill="white"/>
<path d="M7.65625 78.3516H13.2266V80.8828H10.9453V83.2812H12.9766V85.6875H10.9453V91H7.65625V78.3516ZM17.3203 78.3516V91H14.0312V78.3516H17.3203ZM21.9297 78.3516V88.4688H23.9297V91H18.6406V78.3516H21.9297ZM34.8828 78.3516V91H32.0078V82.4609L30.8594 91H28.8203L27.6094 82.6562V91H24.7344V78.3516H28.9922C29.1172 79.112 29.25 80.0078 29.3906 81.0391L29.8438 84.2578L30.5938 78.3516H34.8828ZM46.3516 78.3516V91H43.4766V82.4609L42.3281 91H40.2891L39.0781 82.6562V91H36.2031V78.3516H40.4609C40.5859 79.112 40.7188 80.0078 40.8594 81.0391L41.3125 84.2578L42.0625 78.3516H46.3516ZM53.3516 78.3516L55.2344 91H51.8672L51.7031 88.7266H50.5234L50.3281 91H46.9219L48.5938 78.3516H53.3516ZM51.6094 86.4844C51.4427 85.0521 51.276 83.2839 51.1094 81.1797C50.776 83.5964 50.5677 85.3646 50.4844 86.4844H51.6094ZM63.6328 78.3516L61.75 84.0625L63.8125 91H60.4141L59.0859 85.5781V91H55.7969V78.3516H59.0859V83.2656L60.5469 78.3516H63.6328ZM67.6797 78.3516V91H64.3906V78.3516H67.6797ZM76.3438 78.3516V91H73.4609L71.75 85.25V91H69V78.3516H71.75L73.5938 84.0469V78.3516H76.3438ZM85.2188 83.0078H81.9297V81.8594C81.9297 81.1354 81.8984 80.6823 81.8359 80.5C81.7734 80.3177 81.625 80.2266 81.3906 80.2266C81.1875 80.2266 81.0495 80.3047 80.9766 80.4609C80.9036 80.6172 80.8672 81.0182 80.8672 81.6641V87.7344C80.8672 88.3021 80.9036 88.6771 80.9766 88.8594C81.0495 89.0365 81.1953 89.125 81.4141 89.125C81.6536 89.125 81.8151 89.0234 81.8984 88.8203C81.987 88.6172 82.0312 88.2214 82.0312 87.6328V86.1328H81.3672V84.2109H85.2188V91H83.1484L82.8438 90.0938C82.6198 90.4844 82.3359 90.7786 81.9922 90.9766C81.6536 91.1693 81.2526 91.2656 80.7891 91.2656C80.237 91.2656 79.7188 91.1328 79.2344 90.8672C78.7552 90.5964 78.3906 90.263 78.1406 89.8672C77.8906 89.4714 77.7344 89.0573 77.6719 88.625C77.6094 88.1875 77.5781 87.5339 77.5781 86.6641V82.9062C77.5781 81.6979 77.6432 80.8203 77.7734 80.2734C77.9036 79.7266 78.276 79.2266 78.8906 78.7734C79.5104 78.3151 80.3099 78.0859 81.2891 78.0859C82.2526 78.0859 83.0521 78.2839 83.6875 78.6797C84.3229 79.0755 84.737 79.5469 84.9297 80.0938C85.1224 80.6354 85.2188 81.4245 85.2188 82.4609V83.0078Z" fill="#4A5997"/>
<rect y="4" width="93.6997" height="67.4638" rx="8" fill="#4A5997"/>
<path d="M96.5185 42.2532C95.2342 41.4746 95.2342 39.6112 96.5185 38.8326L128.81 19.2572C130.142 18.4492 131.846 19.4088 131.846 20.9674L131.846 60.1184C131.846 61.677 130.142 62.6366 128.81 61.8286L96.5185 42.2532Z" fill="#4A5997"/>
</g>
<defs>
<clipPath id="clip0">
<rect width="132" height="93" fill="white"/>
</clipPath>
</defs>
</svg>
