<svg width="30" height="30" viewBox="0 0 30 30" fill="none" xmlns="http://www.w3.org/2000/svg">
<path fill-rule="evenodd" clip-rule="evenodd" d="M14.9986 2.36807e-06C6.71568 2.36807e-06 0 6.71568 0 15.0005C0 21.6277 4.29755 27.2495 10.2581 29.2339C11.0086 29.3711 11.2821 28.9079 11.2821 28.5101C11.2821 28.1546 11.2692 27.2108 11.2619 25.9594C7.08954 26.8655 6.20921 23.9482 6.20921 23.9482C5.52687 22.2152 4.54342 21.7539 4.54342 21.7539C3.1815 20.8238 4.64655 20.8423 4.64655 20.8423C6.15212 20.9482 6.94404 22.3883 6.94404 22.3883C8.28202 24.6803 10.4552 24.0182 11.3097 23.6342C11.446 22.6655 11.8328 22.0044 12.2619 21.6296C8.93121 21.2511 5.42926 19.9638 5.42926 14.2159C5.42926 12.5787 6.014 11.2398 6.97351 10.1909C6.81881 9.81154 6.30406 8.28663 7.11992 6.22119C7.11992 6.22119 8.37963 5.81786 11.2453 7.75899C12.4414 7.42564 13.7251 7.25989 15.0005 7.25437C16.274 7.25989 17.5576 7.42564 18.7556 7.75899C21.6194 5.81786 22.8764 6.22119 22.8764 6.22119C23.695 8.28663 23.1803 9.81154 23.0256 10.1909C23.9869 11.2398 24.568 12.5787 24.568 14.2159C24.568 19.9785 21.0605 21.2465 17.7188 21.6176C18.2575 22.0808 18.7372 22.9961 18.7372 24.3958C18.7372 26.4004 18.7188 28.0184 18.7188 28.5101C18.7188 28.9116 18.9886 29.3784 19.7501 29.232C25.7061 27.2439 30 21.6259 30 15.0005C30 6.71568 23.2834 2.36807e-06 14.9986 2.36807e-06Z" fill="#5F6DA7"/>
</svg>
