<svg width="81" height="115" viewBox="0 0 81 115" fill="none" xmlns="http://www.w3.org/2000/svg">
<path d="M80.8523 22.5432L73.4993 105.483L40.4471 114.71L7.48602 105.496L0.140625 22.5432H80.8523Z" fill="#E44D26"/>
<path d="M40.4961 107.657L67.2039 100.202L73.4872 29.3257H40.4961V107.657Z" fill="#F16529"/>
<path d="M26.2028 49.6737H40.4968V39.4999H15.1602L15.4019 42.2293L17.8855 70.2657H40.4968V60.0919H27.1263L26.2028 49.6737V49.6737ZM28.4801 75.3528H18.3369L19.7524 91.3273L40.4503 97.1123L40.4968 97.0996V86.5145L40.4525 86.5263L29.1995 83.4668L28.4801 75.3528V75.3528Z" fill="#EBEBEB"/>
<path d="M7.65039 0H12.7852V5.1081H17.4825V0H22.6177V15.4686H17.4828V10.2888H12.7856V15.4686H7.65071V0H7.65039ZM29.3699 5.12977H24.8501V0H39.0283V5.12977H34.5057V15.4686H29.3708V5.12977H29.3705H29.3699ZM41.2784 0H46.6325L49.926 5.43526L53.2164 0H58.5727V15.4686H53.4587V7.80152L49.926 13.3015H49.8374L46.3025 7.80152V15.4686H41.2784V0ZM61.1281 0H66.2645V10.3557H73.4856V15.4686H61.1278V0H61.1281Z" fill="black"/>
<path d="M40.4613 70.2657H52.9035L51.7304 83.4605L40.4609 86.5231V97.1076L61.1753 91.3273L61.3271 89.6084L63.7019 62.8239L63.9484 60.0919H40.4613V70.2657ZM40.4613 49.6489V49.6737H64.8678L65.0702 47.3871L65.5309 42.2293L65.7723 39.4999H40.4613V49.6492V49.6489Z" fill="white"/>
</svg>
