<svg width="87" height="103" viewBox="0 0 87 103" fill="none" xmlns="http://www.w3.org/2000/svg">
<path d="M6.83503 89.6014V96.4696C6.83503 97.4979 6.82445 98.1602 6.80329 98.4564C6.78213 98.7484 6.6848 99.0129 6.5113 99.2499C6.34202 99.4869 6.10928 99.6519 5.81305 99.745C5.52106 99.8339 5.07884 99.8783 4.48639 99.8783H3.14704V98.0819C3.30784 98.0946 3.42422 98.101 3.49616 98.101C3.68659 98.101 3.83682 98.0544 3.94684 97.9613C4.05687 97.8682 4.12034 97.7539 4.13727 97.6185C4.1542 97.4831 4.16266 97.2207 4.16266 96.8314V89.6014H6.83503ZM14.6294 89.6014L16.1592 99.8783H13.4234L13.2901 98.0311H12.3316L12.1729 99.8783H9.40532L10.7637 89.6014H14.6294ZM13.2139 96.2094C13.0785 95.0456 12.9431 93.6089 12.8077 91.8993C12.5368 93.8628 12.3676 95.2995 12.2998 96.2094H13.2139ZM25.1089 89.6014L23.7505 99.8783H19.6944L18.1519 89.6014H20.9702C21.2961 92.4325 21.5288 94.8256 21.6685 96.7806C21.8081 94.8044 21.9541 93.0482 22.1065 91.5121L22.2906 89.6014H25.1089ZM32.3257 89.6014L33.8555 99.8783H31.1196L30.9863 98.0311H30.0278L29.8691 99.8783H27.1016L28.46 89.6014H32.3257ZM30.9102 96.2094C30.7747 95.0456 30.6393 93.6089 30.5039 91.8993C30.2331 93.8628 30.0638 95.2995 29.9961 96.2094H30.9102ZM42.1196 92.7118H39.6377V91.9501C39.6377 91.5946 39.6059 91.3682 39.5425 91.2709C39.479 91.1735 39.3732 91.1249 39.2251 91.1249C39.0643 91.1249 38.9416 91.1905 38.8569 91.3217C38.7765 91.4528 38.7363 91.6517 38.7363 91.9183C38.7363 92.2611 38.7829 92.5192 38.876 92.6927C38.9648 92.8663 39.2166 93.0757 39.6313 93.3212C40.8205 94.0279 41.5695 94.6076 41.8784 95.0604C42.1873 95.5132 42.3418 96.2432 42.3418 97.2504C42.3418 97.9825 42.255 98.522 42.0815 98.869C41.9123 99.216 41.5822 99.508 41.0913 99.745C40.6004 99.9777 40.0291 100.094 39.3774 100.094C38.6623 100.094 38.0508 99.9587 37.543 99.6879C37.0394 99.417 36.7093 99.0721 36.5527 98.6532C36.3961 98.2343 36.3179 97.6397 36.3179 96.8695V96.1967H38.7998V97.4471C38.7998 97.8322 38.8336 98.0798 38.9014 98.1898C38.9733 98.2998 39.0981 98.3549 39.2759 98.3549C39.4536 98.3549 39.5848 98.285 39.6694 98.1454C39.7583 98.0057 39.8027 97.7984 39.8027 97.5233C39.8027 96.9182 39.7202 96.5225 39.5552 96.3363C39.3859 96.1501 38.9691 95.8391 38.3047 95.4032C37.6403 94.9631 37.2002 94.6436 36.9844 94.4447C36.7685 94.2458 36.5887 93.9707 36.4448 93.6195C36.3052 93.2683 36.2353 92.8197 36.2353 92.2738C36.2353 91.4867 36.3348 90.9112 36.5337 90.5472C36.7368 90.1833 37.0627 89.8998 37.5112 89.6967C37.9598 89.4893 38.5015 89.3856 39.1362 89.3856C39.8302 89.3856 40.4206 89.4978 40.9072 89.722C41.3981 89.9463 41.7218 90.2299 41.8784 90.5726C42.0392 90.9112 42.1196 91.4888 42.1196 92.3055V92.7118ZM51.5708 94.0829H48.8984V92.2928C48.8984 91.7723 48.8688 91.4486 48.8095 91.3217C48.7545 91.1905 48.6297 91.1249 48.435 91.1249C48.215 91.1249 48.0753 91.2032 48.0161 91.3597C47.9568 91.5163 47.9272 91.8549 47.9272 92.3754V97.1488C47.9272 97.6482 47.9568 97.974 48.0161 98.1263C48.0753 98.2787 48.2086 98.3549 48.416 98.3549C48.6149 98.3549 48.7439 98.2787 48.8032 98.1263C48.8667 97.974 48.8984 97.6164 48.8984 97.0536V95.765H51.5708V96.1649C51.5708 97.2271 51.4946 97.9803 51.3423 98.4247C51.1941 98.869 50.8619 99.2583 50.3457 99.5927C49.8336 99.927 49.201 100.094 48.4477 100.094C47.6648 100.094 47.0195 99.9524 46.5117 99.6688C46.0039 99.3853 45.6674 98.9939 45.5024 98.4945C45.3374 97.9909 45.2548 97.2356 45.2548 96.2284V93.226C45.2548 92.4854 45.2802 91.931 45.331 91.5629C45.3818 91.1905 45.532 90.8329 45.7817 90.4901C46.0356 90.1473 46.3847 89.8786 46.8291 89.684C47.2776 89.4851 47.7918 89.3856 48.3715 89.3856C49.1587 89.3856 49.8082 89.538 50.3203 89.8427C50.8323 90.1473 51.1687 90.5282 51.3296 90.9852C51.4904 91.438 51.5708 92.1447 51.5708 93.1053V94.0829ZM54.6743 89.6014H56.5659C57.8269 89.6014 58.6796 89.6501 59.124 89.7474C59.5725 89.8448 59.9365 90.0944 60.2158 90.4965C60.4993 90.8942 60.6411 91.5311 60.6411 92.4071C60.6411 93.2069 60.5416 93.7443 60.3427 94.0194C60.1438 94.2945 59.7524 94.4595 59.1684 94.5145C59.6974 94.6457 60.0528 94.8213 60.2348 95.0414C60.4168 95.2614 60.5289 95.4646 60.5712 95.6508C60.6178 95.8327 60.6411 96.3384 60.6411 97.1678V99.8783H58.1591V96.4633C58.1591 95.9131 58.1147 95.5725 58.0258 95.4413C57.9412 95.3101 57.7148 95.2445 57.3466 95.2445V99.8783H54.6743V89.6014ZM57.3466 91.3597V93.6449C57.6471 93.6449 57.8566 93.6047 57.975 93.5243C58.0978 93.4397 58.1591 93.1709 58.1591 92.7181V92.1532C58.1591 91.8274 58.0999 91.6136 57.9814 91.5121C57.8671 91.4105 57.6555 91.3597 57.3466 91.3597ZM66.4994 89.6014V99.8783H63.8271V89.6014H66.4994ZM69.7172 89.6014H72.4086C73.1365 89.6014 73.6951 89.6586 74.0844 89.7728C74.4779 89.8871 74.772 90.0521 74.9667 90.2679C75.1656 90.4838 75.2989 90.7461 75.3666 91.0551C75.4385 91.3597 75.4745 91.8337 75.4745 92.4769V93.3719C75.4745 94.0279 75.4068 94.5061 75.2714 94.8065C75.136 95.107 74.8863 95.3376 74.5224 95.4984C74.1627 95.6592 73.6908 95.7396 73.1068 95.7396H72.3896V99.8783H69.7172V89.6014ZM72.3896 91.3597V93.975C72.4657 93.9792 72.5313 93.9813 72.5863 93.9813C72.8318 93.9813 73.001 93.9221 73.0941 93.8036C73.1915 93.6809 73.2401 93.4291 73.2401 93.0482V92.204C73.2401 91.8527 73.1851 91.6242 73.0751 91.5184C72.9651 91.4126 72.7366 91.3597 72.3896 91.3597ZM83.7704 89.6014V91.6581H82.1835V99.8783H79.5111V91.6581H77.9306V89.6014H83.7704Z" fill="black"/>
<g clip-path="url(#clip0)">
<path d="M86.8783 0H0V86.8783H86.8783V0Z" fill="#F7DF1E"/>
<path d="M58.3599 67.874C60.1099 70.7313 62.3867 72.8316 66.4134 72.8316C69.7962 72.8316 71.9571 71.1409 71.9571 68.8048C71.9571 66.0054 69.7369 65.0139 66.0135 63.3853L63.9726 62.5096C58.0814 59.9998 54.1677 56.8556 54.1677 50.2087C54.1677 44.0859 58.833 39.4248 66.1238 39.4248C71.3145 39.4248 75.0461 41.2313 77.7352 45.9614L71.3779 50.0433C69.9782 47.5334 68.4682 46.5447 66.1238 46.5447C63.7326 46.5447 62.2171 48.0616 62.2171 50.0433C62.2171 52.4924 63.734 53.4839 67.2367 55.0008L69.2776 55.8751C76.2141 58.8497 80.1305 61.8821 80.1305 68.7C80.1305 76.0502 74.3566 80.0769 66.6024 80.0769C59.0205 80.0769 54.1222 76.4639 51.7255 71.7283L58.3599 67.874ZM29.5205 68.5814C30.803 70.8568 31.9696 72.7805 34.7746 72.7805C37.4568 72.7805 39.1488 71.7311 39.1488 67.6506V39.8909H47.3126V67.7609C47.3126 76.2143 42.3564 80.0618 35.1221 80.0618C28.5855 80.0618 24.8001 76.679 22.875 72.6047L29.5205 68.5814Z" fill="black"/>
</g>
<defs>
<clipPath id="clip0">
<rect width="86.8783" height="86.8783" fill="white"/>
</clipPath>
</defs>
</svg>
