<svg width="29" height="28" viewBox="0 0 29 28" fill="none" xmlns="http://www.w3.org/2000/svg">
<path d="M25.9752 20.2164C24.703 22.6276 22.7444 24.6073 20.347 25.9054C17.9496 27.2034 15.2212 27.7614 12.5067 27.5088C9.79219 27.2561 7.21357 26.2042 5.09691 24.4861C2.98025 22.7679 1.42061 20.4607 0.615224 17.8561C-0.190162 15.2516 -0.205125 12.4667 0.572229 9.85366C1.34958 7.24062 2.88434 4.91676 4.98242 3.17597C7.08049 1.43517 9.64766 0.35562 12.3593 0.0738306C15.0709 -0.207959 17.8052 0.32067 20.2164 1.59287L17.9796 5.83222C16.4069 5.00242 14.6234 4.65762 12.8547 4.84142C11.086 5.02522 9.41158 5.72937 8.04309 6.86482C6.6746 8.00027 5.67354 9.51602 5.1665 11.2204C4.65947 12.9248 4.66923 14.7413 5.19455 16.4401C5.71987 18.1389 6.73716 19.6439 8.11777 20.7645C9.49838 21.8852 11.1803 22.5713 12.9509 22.7361C14.7214 22.9009 16.5011 22.537 18.0648 21.6903C19.6285 20.8436 20.906 19.5523 21.7358 17.9796L25.9752 20.2164Z" fill="#5F6DA7"/>
<path d="M17.5907 13.2374C16.2135 14.3908 17.0166 17.2742 16.7299 18.1393C16.3473 18.8121 15.2951 19.2926 14.1474 15.8325C12.9997 12.3724 13.8605 11.0269 15.0083 10.0657C16.7299 8.62394 19.599 8.43171 21.8944 8.33559V5.16381C22.3535 4.24111 23.4246 4.77935 23.9029 5.16381L28.4937 9.7773C29.4118 10.4693 28.8762 11.219 28.4937 11.5074L23.329 15.8325C22.4108 16.5245 21.99 15.9286 21.8944 15.5442V12.3724C21.0337 12.1802 18.968 12.084 17.5907 13.2374Z" fill="#5F6DA7"/>
</svg>
