<svg width="134" height="93" viewBox="0 0 134 93" fill="none" xmlns="http://www.w3.org/2000/svg">
<g clip-path="url(#clip0)">
<path d="M41.0177 75.1062H37.3899C37.2616 68.9755 36.9083 63.2118 36.3307 57.8111H36.2984L30.7751 75.1062H28.0131L22.5227 57.8111H22.4912C22.0839 62.9964 21.8273 68.7614 21.7208 75.1062H18.4141C18.6272 67.3907 19.1627 60.1574 20.0187 53.4055H24.515L29.7481 69.351H29.7804L35.0457 53.4055H39.3478C40.29 61.314 40.8466 68.548 41.0177 75.1062V75.1062ZM56.7506 59.0955C55.2735 67.1205 53.3247 72.9515 50.9062 76.5913C49.0219 79.3931 46.9574 80.7954 44.7092 80.7954C44.1098 80.7954 43.3703 80.6143 42.494 80.255V78.32C42.9223 78.3817 43.4249 78.4168 44.0026 78.4168C45.0527 78.4168 45.8967 78.1277 46.5403 77.5479C47.31 76.8419 47.6948 76.0481 47.6948 75.17C47.6948 74.5679 47.3948 73.3368 46.7961 71.4727L42.8151 59.0948H46.379L49.2364 68.3522C49.8785 70.4543 50.1463 71.9219 50.039 72.7578C51.6016 68.5796 52.6931 64.0239 53.3149 59.094H56.7506V59.0955V59.0955Z" fill="#5D87A1"/>
<path d="M105.04 75.1063H94.7354V53.4056H98.2019V72.435H105.04V75.1063ZM92.0379 75.6306L88.0533 73.6619C88.4066 73.3713 88.7445 73.0569 89.0488 72.6926C90.7424 70.7008 91.5872 67.7551 91.5872 63.8535C91.5872 56.6742 88.7733 53.0828 83.1434 53.0828C80.3828 53.0828 78.2293 53.9938 76.6892 55.8165C74.9969 57.8098 74.1522 60.7449 74.1522 64.6255C74.1522 68.4401 74.9009 71.2384 76.3989 73.0134C77.7694 74.6213 79.8353 75.4264 82.598 75.4264C83.6285 75.4264 84.5742 75.3 85.4357 75.0453L90.6233 78.0688L92.0379 75.6306ZM79.1301 70.7639C78.2524 69.3504 77.8136 67.0806 77.8136 63.951C77.8136 58.4871 79.4715 55.7519 82.7908 55.7519C84.5258 55.7519 85.7975 56.4061 86.6106 57.7115C87.4869 59.1272 87.9278 61.3766 87.9278 64.4627C87.9278 69.9715 86.2685 72.7263 82.9513 72.7263C81.2156 72.727 79.944 72.075 79.1301 70.7639V70.7639ZM72.6415 69.0914C72.6415 70.9317 71.9671 72.4414 70.6198 73.624C69.271 74.8017 67.4624 75.392 65.196 75.392C63.0761 75.392 61.0207 74.714 59.0312 73.365L59.9629 71.5016C61.6748 72.3599 63.2247 72.7867 64.6162 72.7867C65.9222 72.7867 66.9429 72.4968 67.6832 71.922C68.4228 71.3451 68.8637 70.5358 68.8637 69.5125C68.8637 68.2232 67.9657 67.1213 66.3183 66.1984C64.7992 65.3631 61.761 63.6169 61.761 63.6169C60.1143 62.4153 59.2899 61.1253 59.2899 59.0001C59.2899 57.2413 59.9047 55.8214 61.135 54.7412C62.3667 53.6569 63.9559 53.1165 65.904 53.1165C67.9159 53.1165 69.7449 53.6562 71.3923 54.7244L70.5567 56.5885C69.1476 55.9891 67.7568 55.6895 66.3849 55.6895C65.2738 55.6895 64.4158 55.9569 63.8192 56.4938C63.2177 57.0286 62.8469 57.7129 62.8469 58.5523C62.8469 59.8353 63.7638 60.9513 65.4561 61.8925C66.9955 62.7291 70.1094 64.5055 70.1094 64.5055C71.7982 65.7049 72.6415 66.983 72.6415 69.0914" fill="#F8981D"/>
<path d="M109.393 46.1371C107.297 46.0837 105.674 46.295 104.312 46.8719C103.919 47.0292 103.293 47.0292 103.239 47.5268C103.451 47.7373 103.476 48.077 103.66 48.3676C103.974 48.8919 104.522 49.5972 105.021 49.965C105.57 50.3861 106.121 50.803 106.699 51.1701C107.718 51.8011 108.872 52.1681 109.865 52.797C110.443 53.1627 111.018 53.6357 111.597 54.0295C111.882 54.2393 112.064 54.5797 112.433 54.711V54.631C112.248 54.3951 112.196 54.054 112.014 53.7915L111.228 53.0321C110.468 52.0102 109.523 51.1182 108.505 50.3854C107.666 49.8071 105.833 49.021 105.493 48.0539L105.439 48.0005C106.015 47.9465 106.699 47.7373 107.246 47.5766C108.137 47.3415 108.95 47.3948 109.864 47.1597C110.285 47.0544 110.702 46.9225 111.124 46.7926V46.5561C110.65 46.0837 110.312 45.4563 109.814 45.0099C108.48 43.8568 107.011 42.7289 105.493 41.7849C104.679 41.2592 103.633 40.9209 102.768 40.4738C102.456 40.3159 101.93 40.238 101.746 39.9755C101.277 39.3986 101.012 38.6392 100.672 37.9563C99.9145 36.5154 99.1792 34.9165 98.5258 33.3928C98.0533 32.3709 97.7659 31.3504 97.1897 30.405C94.4908 25.9482 91.5598 23.2489 87.0551 20.5994C86.087 20.0477 84.9352 19.8126 83.7049 19.5234L81.74 19.4196C81.3208 19.2357 80.9009 18.7366 80.5349 18.5008C79.0404 17.5575 75.1925 15.513 74.0933 18.2124C73.3852 19.9186 75.1406 21.596 75.7435 22.4614C76.1886 23.0622 76.7655 23.7458 77.0768 24.428C77.2612 24.8737 77.313 25.3467 77.4974 25.8177C77.9166 26.9715 78.3085 28.2552 78.8595 29.3319C79.1469 29.8807 79.4603 30.4576 79.8276 30.9545C80.0379 31.2451 80.4038 31.3736 80.4837 31.8473C80.1185 32.3695 80.0898 33.1577 79.8802 33.8132C78.938 36.7757 79.306 40.4457 80.6415 42.6229C81.0593 43.2784 82.0561 44.7214 83.3895 44.1684C84.57 43.6967 84.3085 42.2025 84.6478 40.8921C84.7256 40.5756 84.6744 40.3678 84.8315 40.1601V40.2113C85.1967 40.9448 85.5654 41.6515 85.904 42.3871C86.7165 43.6708 88.1311 45.0085 89.3096 45.8978C89.937 46.3722 90.434 47.1836 91.2198 47.4734V47.3948H91.1679C91.0088 47.1597 90.7761 47.0544 90.5672 46.8719C90.0947 46.3996 89.5717 45.8227 89.2051 45.2991C88.1073 43.8301 87.1357 42.2039 86.2734 40.5258C85.8514 39.7116 85.4876 38.8216 85.1476 38.0089C84.9892 37.6952 84.9892 37.2221 84.7263 37.0642C84.3323 37.6404 83.7582 38.1394 83.4708 38.8455C82.9724 39.9748 82.9205 41.3638 82.7354 42.8082L82.6324 42.8587C81.7982 42.6489 81.5079 41.7849 81.1911 41.0514C80.4066 39.1887 80.2748 36.1988 80.9555 34.0497C81.1378 33.5002 81.9264 31.7694 81.6117 31.2458C81.454 30.744 80.9296 30.4583 80.6422 30.0632C80.3043 29.5663 79.9341 28.9374 79.6986 28.3858C79.0705 26.9182 78.7543 25.292 78.0779 23.8251C77.7617 23.1415 77.2128 22.434 76.7684 21.8045C76.2692 21.097 75.7203 20.5987 75.3257 19.76C75.1953 19.4715 75.0123 18.9998 75.2219 18.6861C75.2731 18.4756 75.3796 18.3969 75.5885 18.3443C75.9278 18.0572 76.8973 18.4222 77.2373 18.5801C78.2082 18.9732 79.02 19.3402 79.8304 19.8905C80.197 20.1537 80.5903 20.652 81.0607 20.7833H81.6117C82.448 20.9657 83.3909 20.8338 84.1781 21.071C85.5654 21.5174 86.8223 22.1722 87.9496 22.879C91.3797 25.0569 94.2083 28.1513 96.1178 31.8473C96.4312 32.4495 96.5644 33.0012 96.8504 33.6293C97.4021 34.9151 98.0842 36.2262 98.6317 37.4846C99.182 38.7164 99.7063 39.9741 100.492 40.9974C100.884 41.5477 102.459 41.8361 103.164 42.1246C103.687 42.3597 104.5 42.5689 104.971 42.8573C105.862 43.4069 106.749 44.0378 107.587 44.6421C108.004 44.9566 109.315 45.6121 109.393 46.1371V46.1371ZM82.68 23.352C82.3185 23.3483 81.958 23.3927 81.6082 23.484V23.5366H81.6586C81.8697 23.9556 82.2363 24.2462 82.4978 24.6119C82.7088 25.0323 82.8917 25.4492 83.0985 25.8689L83.149 25.817C83.5184 25.5552 83.7021 25.1355 83.7021 24.5059C83.543 24.3206 83.5184 24.1395 83.386 23.9556C83.2317 23.6931 82.8917 23.5626 82.68 23.352" fill="#5D87A1"/>
<path d="M111.886 75.1027H112.429V72.4441H111.615L110.951 74.2584L110.23 72.4441H109.446V75.1027H109.959V73.0799H109.987L110.743 75.1027H111.133L111.886 73.0799V75.1027ZM107.515 75.1027H108.09V72.8947H108.841V72.4434H106.732V72.8947H107.514L107.515 75.1027Z" fill="#F8981D"/>
</g>
<defs>
<clipPath id="clip0">
<rect width="134" height="93" fill="white"/>
</clipPath>
</defs>
</svg>
