<svg id="Layer_1" data-name="Layer 1" xmlns="http://www.w3.org/2000/svg" xmlns:xlink="http://www.w3.org/1999/xlink" viewBox="0 0 442.37 270.93">
  <defs>
    <linearGradient id="linear-gradient" x1="-477.3" y1="-91.29" x2="-515.36" y2="-13.63" gradientUnits="userSpaceOnUse">
      <stop offset="0" stop-color="#3f873f"/>
      <stop offset="0.33" stop-color="#3f8b3d"/>
      <stop offset="0.64" stop-color="#3e9637"/>
      <stop offset="0.93" stop-color="#3da92e"/>
      <stop offset="1" stop-color="#3dae2b"/>
    </linearGradient>
    <clipPath id="clip-path" transform="translate(657.69 171.98)">
      <path d="M-491.88-109.39a5.09,5.09,0,0,0-5.09,0L-539.1-85.08a5.09,5.09,0,0,0-2.55,4.41V-32a5.08,5.08,0,0,0,2.55,4.4L-497-3.26a5.09,5.09,0,0,0,5.09,0l42.13-24.34a5.09,5.09,0,0,0,2.54-4.4V-80.67a5.09,5.09,0,0,0-2.55-4.41Z" style="fill: url(#linear-gradient);clip-rule: evenodd"/>
    </clipPath>
    <linearGradient id="linear-gradient-3" x1="-500.84" y1="-50.65" x2="-394.04" y2="-129.56" gradientUnits="userSpaceOnUse">
      <stop offset="0.14" stop-color="#3f873f"/>
      <stop offset="0.4" stop-color="#529f44"/>
      <stop offset="0.71" stop-color="#63b649"/>
      <stop offset="0.91" stop-color="#6abf4b"/>
    </linearGradient>
    <linearGradient id="linear-gradient-4" x1="114.56" y1="53.82" x2="211.97" y2="53.82" gradientUnits="userSpaceOnUse">
      <stop offset="0.09" stop-color="#6abf4b"/>
      <stop offset="0.29" stop-color="#63b649"/>
      <stop offset="0.6" stop-color="#529f44"/>
      <stop offset="0.86" stop-color="#3f873f"/>
    </linearGradient>
    <linearGradient id="linear-gradient-5" x1="-543.14" y1="-56.35" x2="-445.72" y2="-56.35" xlink:href="#linear-gradient-4"/>
    <linearGradient id="linear-gradient-6" x1="114.56" y1="143.45" x2="211.97" y2="143.45" xlink:href="#linear-gradient-4"/>
    <linearGradient id="linear-gradient-7" x1="-543.14" y1="-15.97" x2="-445.72" y2="-15.97" xlink:href="#linear-gradient-4"/>
    <linearGradient id="linear-gradient-8" x1="-431.53" y1="-93.59" x2="-491.61" y2="28.98" xlink:href="#linear-gradient"/>
  </defs>
  <title>nodejs-new-pantone-black</title>
  <g>
    <path d="M-439,98.94a8.38,8.38,0,0,1-4.19-1.12l-13.34-7.89c-2-1.11-1-1.51-.36-1.74a26.25,26.25,0,0,0,6-2.74,1,1,0,0,1,1,.08l10.24,6.08a1.3,1.3,0,0,0,1.24,0l39.95-23.06a1.26,1.26,0,0,0,.61-1.08V21.37a1.28,1.28,0,0,0-.62-1.1l-39.93-23a1.23,1.23,0,0,0-1.23,0l-39.93,23a1.28,1.28,0,0,0-.63,1.1v46.1a1.22,1.22,0,0,0,.63,1.07l10.94,6.32c5.94,3,9.58-.53,9.58-4V25.3a1.15,1.15,0,0,1,1.16-1.15h5.06a1.15,1.15,0,0,1,1.16,1.15V70.82c0,7.93-4.31,12.47-11.83,12.47-2.31,0-4.12,0-9.2-2.5l-10.48-6a8.46,8.46,0,0,1-4.19-7.29V21.37a8.42,8.42,0,0,1,4.19-7.28L-443.24-9a8.76,8.76,0,0,1,8.4,0l39.95,23.09a8.43,8.43,0,0,1,4.19,7.28v46.1a8.47,8.47,0,0,1-4.19,7.29l-39.95,23.06A8.4,8.4,0,0,1-439,98.94Z" transform="translate(657.69 171.98)" style="fill: #679e63"/>
    <path d="M-426.71,67.18c-17.48,0-21.14-8-21.14-14.75a1.14,1.14,0,0,1,1.15-1.15h5.17a1.15,1.15,0,0,1,1.15,1c.78,5.26,3.1,7.92,13.67,7.92,8.42,0,12-1.91,12-6.37,0-2.58-1-4.49-14.09-5.77-10.93-1.08-17.69-3.5-17.69-12.24,0-8.06,6.79-12.87,18.18-12.87,12.8,0,19.13,4.44,19.93,14a1.15,1.15,0,0,1-.3.88,1.17,1.17,0,0,1-.85.37h-5.18a1.15,1.15,0,0,1-1.12-.9c-1.25-5.53-4.27-7.3-12.48-7.3-9.19,0-10.26,3.2-10.26,5.6,0,2.9,1.26,3.75,13.67,5.39s18.11,3.92,18.11,12.55S-414,67.18-426.71,67.18Z" transform="translate(657.69 171.98)" style="fill: #679e63"/>
  </g>
  <path d="M-369.1,18.83a7.72,7.72,0,0,1-7.7,7.7,7.72,7.72,0,0,1-7.7-7.7,7.72,7.72,0,0,1,7.7-7.7A7.69,7.69,0,0,1-369.1,18.83Zm-14.16,0a6.46,6.46,0,0,0,6.44,6.48,6.51,6.51,0,0,0,6.48-6.48,6.46,6.46,0,0,0-6.48-6.44A6.43,6.43,0,0,0-383.26,18.81Zm3.57-4.3h3c1,0,3,0,3,2.28a2,2,0,0,1-1.63,2.12c1.18.08,1.26.86,1.42,2a8.51,8.51,0,0,0,.45,2.28h-1.83c0-.41-.33-2.61-.33-2.73-.12-.49-.29-.73-.9-.73H-378v3.46h-1.67Zm1.63,3.79h1.34a1.16,1.16,0,0,0,1.31-1.22c0-1.18-.82-1.18-1.27-1.18h-1.38Z" transform="translate(657.69 171.98)" style="fill: #679e63"/>
  <path d="M-562.76-81.43a5.11,5.11,0,0,0-2.56-4.45l-42.35-24.37a5.11,5.11,0,0,0-2.33-.68h-.44a5.18,5.18,0,0,0-2.34.68l-42.35,24.37a5.14,5.14,0,0,0-2.56,4.45l.09,65.63a2.51,2.51,0,0,0,1.28,2.21,2.46,2.46,0,0,0,2.54,0L-628.61-28A5.17,5.17,0,0,0-626-32.44V-63.11a5.1,5.1,0,0,1,2.55-4.42l10.72-6.18a5.1,5.1,0,0,1,2.57-.68,5,5,0,0,1,2.54.68l10.72,6.18a5.1,5.1,0,0,1,2.55,4.42v30.67A5.17,5.17,0,0,0-591.83-28l25.16,14.41a2.5,2.5,0,0,0,2.56,0,2.56,2.56,0,0,0,1.27-2.21Z" transform="translate(657.69 171.98)" style="fill: #333;fill-rule: evenodd"/>
  <path d="M-359-171.66a2.56,2.56,0,0,0-2.54,0,2.56,2.56,0,0,0-1.26,2.2v65a1.82,1.82,0,0,1-.9,1.56,1.79,1.79,0,0,1-1.79,0L-376.06-109a5.1,5.1,0,0,0-5.11,0l-42.37,24.45a5.09,5.09,0,0,0-2.56,4.43v48.92a5.12,5.12,0,0,0,2.56,4.43l42.37,24.47a5.12,5.12,0,0,0,5.11,0l42.38-24.47a5.14,5.14,0,0,0,2.56-4.43V-153.12a5.11,5.11,0,0,0-2.63-4.47Zm-3.93,124.4a1.27,1.27,0,0,1-.64,1.11l-14.55,8.39a1.32,1.32,0,0,1-1.28,0l-14.54-8.39a1.27,1.27,0,0,1-.64-1.11v-16.8a1.28,1.28,0,0,1,.63-1.1l14.55-8.41a1.27,1.27,0,0,1,1.28,0l14.55,8.41a1.27,1.27,0,0,1,.64,1.1Z" transform="translate(657.69 171.98)" style="fill: #333;fill-rule: evenodd"/>
  <g>
    <path d="M-217.87-64.5a5.1,5.1,0,0,0,2.55-4.42V-80.77a5.12,5.12,0,0,0-2.55-4.43L-260-109.64a5.14,5.14,0,0,0-5.13,0l-42.35,24.46A5.09,5.09,0,0,0-310-80.76v48.9a5.12,5.12,0,0,0,2.58,4.44l42.1,24a5.13,5.13,0,0,0,5,0l25.46-14.15a2.57,2.57,0,0,0,1.32-2.22A2.55,2.55,0,0,0-234.83-22l-42.62-24.46a2.57,2.57,0,0,1-1.29-2.22V-64a2.55,2.55,0,0,1,1.28-2.21l13.27-7.65a2.53,2.53,0,0,1,2.55,0l13.28,7.65A2.55,2.55,0,0,1-247.08-64V-52a2.58,2.58,0,0,0,1.28,2.22,2.57,2.57,0,0,0,2.56,0Z" transform="translate(657.69 171.98)" style="fill: #333;fill-rule: evenodd"/>
    <path d="M-263.16-66.79a1,1,0,0,1,1,0L-254-62.1a1,1,0,0,1,.5.86v9.38a1,1,0,0,1-.5.85l-8.13,4.7a1,1,0,0,1-1,0l-8.12-4.7a1,1,0,0,1-.49-.85v-9.38a1,1,0,0,1,.49-.86Z" transform="translate(657.69 171.98)" style="fill: #679e63;fill-rule: evenodd"/>
  </g>
  <g>
    <path d="M-491.88-109.39a5.09,5.09,0,0,0-5.09,0L-539.1-85.08a5.09,5.09,0,0,0-2.55,4.41V-32a5.08,5.08,0,0,0,2.55,4.4L-497-3.26a5.09,5.09,0,0,0,5.09,0l42.13-24.34a5.09,5.09,0,0,0,2.54-4.4V-80.67a5.09,5.09,0,0,0-2.55-4.41Z" transform="translate(657.69 171.98)" style="fill-rule: evenodd;fill: url(#linear-gradient)"/>
    <g style="clip-path: url(#clip-path)">
      <g>
        <path d="M-497.06-109.39l-42.22,24.31A5.27,5.27,0,0,0-542-80.67V-32a4.9,4.9,0,0,0,1.31,3.23l47.44-81.15A5.19,5.19,0,0,0-497.06-109.39Z" transform="translate(657.69 171.98)" style="fill: none"/>
        <path d="M-493-2.77a5.07,5.07,0,0,0,1.18-.49l42.18-24.34A5.2,5.2,0,0,0-447-32V-80.67a5.05,5.05,0,0,0-1.54-3.54Z" transform="translate(657.69 171.98)" style="fill: none"/>
        <path d="M-449.67-85.08l-42.25-24.31a5.07,5.07,0,0,0-1.33-.53l-47.44,81.15a5.91,5.91,0,0,0,1.42,1.17l42.33,24.34a5.15,5.15,0,0,0,3.93.49l44.47-81.44A6,6,0,0,0-449.67-85.08Z" transform="translate(657.69 171.98)" style="fill: url(#linear-gradient-3)"/>
      </g>
      <g>
        <path d="M-447-32V-80.67a5.22,5.22,0,0,0-2.67-4.41l-42.25-24.31a5,5,0,0,0-1.56-.57l46.32,79.12A4.51,4.51,0,0,0-447-32Z" transform="translate(657.69 171.98)" style="fill: none"/>
        <path d="M-539.28-85.08A5.27,5.27,0,0,0-542-80.67V-32a5.28,5.28,0,0,0,2.73,4.4l42.33,24.34a5.14,5.14,0,0,0,3.25.63L-539-85.22Z" transform="translate(657.69 171.98)" style="fill: none"/>
        <polygon points="159.32 53.65 158.74 53.98 159.51 53.98 159.32 53.65" style="fill: url(#linear-gradient-4)"/>
        <path d="M-449.65-27.6a5.32,5.32,0,0,0,2.49-3.24L-493.48-110a5.16,5.16,0,0,0-3.58.57l-42,24.17,45.33,82.59a5.19,5.19,0,0,0,1.86-.63Z" transform="translate(657.69 171.98)" style="fill: url(#linear-gradient-5)"/>
        <polygon points="211.97 143.6 211.69 143.13 211.69 143.76 211.97 143.6" style="fill: url(#linear-gradient-6)"/>
        <path d="M-449.65-27.6-491.83-3.26a5.19,5.19,0,0,1-1.86.63l.84,1.53L-446-28.22v-.64l-1.16-2A5.32,5.32,0,0,1-449.65-27.6Z" transform="translate(657.69 171.98)" style="fill: url(#linear-gradient-7)"/>
        <path d="M-449.65-27.6-491.83-3.26a5.19,5.19,0,0,1-1.86.63l.84,1.53L-446-28.22v-.64l-1.16-2A5.32,5.32,0,0,1-449.65-27.6Z" transform="translate(657.69 171.98)" style="fill: url(#linear-gradient-8)"/>
      </g>
    </g>
  </g>
</svg>
