<svg width="104" height="64" viewBox="0 0 104 64" fill="none" xmlns="http://www.w3.org/2000/svg">
<path d="M51.017 63.2164C50.6763 63.2164 50.3375 63.1275 50.0393 62.9549L46.9271 61.1134C46.4626 60.8535 46.6894 60.7613 46.8427 60.7079C47.4626 60.4927 47.5882 60.443 48.2499 60.0678C48.3187 60.0289 48.4102 60.0438 48.4814 60.0856L50.8723 61.5049C50.9589 61.553 51.0812 61.553 51.161 61.5049L60.4826 56.1247C60.5694 56.0753 60.625 55.9754 60.625 55.8725V45.1149C60.625 45.0097 60.5694 44.9114 60.4803 44.858L51.1626 39.4825C51.0765 39.4321 50.9622 39.4321 50.8754 39.4825L41.56 44.8596C41.4695 44.9114 41.4121 45.0129 41.4121 45.1149V55.8725C41.4121 55.9754 41.4695 56.0729 41.5591 56.1217L44.1127 57.5971C45.4982 58.2898 46.3466 57.4739 46.3466 56.6542V46.0331C46.3466 45.8828 46.4672 45.7645 46.6175 45.7645H47.7993C47.9473 45.7645 48.0695 45.8828 48.0695 46.0331V56.6542C48.0695 58.5033 47.0625 59.5638 45.3094 59.5638C44.7707 59.5638 44.3465 59.5638 43.1623 58.9803L40.7179 57.573C40.114 57.224 39.7402 56.5713 39.7402 55.8725V45.1149C39.7402 44.4161 40.114 43.7634 40.7179 43.416L50.0393 38.0295C50.6292 37.6961 51.4132 37.6961 51.9984 38.0295L61.3194 43.416C61.923 43.7651 62.2984 44.4161 62.2984 45.1149V55.8725C62.2984 56.5713 61.923 57.2216 61.3194 57.573L51.9984 62.9549C51.7004 63.1275 51.3623 63.2164 51.017 63.2164Z" fill="#689F63"/>
<path d="M53.8965 55.8052C49.8174 55.8052 48.9629 53.9329 48.9629 52.3623C48.9629 52.213 49.0828 52.0938 49.2322 52.0938H50.4373C50.572 52.0938 50.6842 52.1906 50.7052 52.322C50.8872 53.5488 51.4297 54.1681 53.8965 54.1681C55.8602 54.1681 56.6963 53.7238 56.6963 52.682C56.6963 52.0814 56.4592 51.6355 53.4074 51.3366C50.8569 51.0844 49.2793 50.5209 49.2793 48.4806C49.2793 46.5997 50.8646 45.4781 53.5227 45.4781C56.5089 45.4781 57.9866 46.5146 58.1737 48.7382C58.1807 48.815 58.1537 48.8885 58.1026 48.9457C58.0515 48.9991 57.9803 49.0318 57.9052 49.0318H56.6953C56.57 49.0318 56.4592 48.9426 56.4338 48.8211C56.1435 47.53 55.4377 47.1175 53.5227 47.1175C51.3786 47.1175 51.1294 47.8644 51.1294 48.4242C51.1294 49.1022 51.4234 49.2994 54.3184 49.6825C57.183 50.0612 58.5438 50.5974 58.5438 52.6108C58.5438 54.6418 56.8503 55.8052 53.8965 55.8052Z" fill="#689F63"/>
<path d="M65.2485 44.3995H65.5619C65.8181 44.3995 65.8662 44.2191 65.8662 44.1146C65.8662 43.8386 65.6758 43.8386 65.5712 43.8386H65.2485V44.3995ZM64.8677 43.5154H65.5619C65.7997 43.5154 66.2656 43.5154 66.2656 44.0481C66.2656 44.4189 66.0279 44.4947 65.8848 44.5423C66.1611 44.5612 66.1798 44.742 66.2176 44.9985C66.2369 45.1599 66.2656 45.436 66.3221 45.5307H65.8949C65.8848 45.436 65.8181 44.9224 65.8181 44.8942C65.7903 44.7798 65.7516 44.7231 65.6093 44.7231H65.2579V45.5307H64.8677V43.5154ZM64.0364 44.5183C64.0364 45.355 64.7114 46.03 65.5381 46.03C66.3748 46.03 67.0496 45.3408 67.0496 44.5183C67.0496 43.682 66.3655 43.0165 65.5381 43.0165C64.7207 43.0165 64.0364 43.6722 64.0364 44.5183V44.5183ZM67.3392 44.5234C67.3392 45.5118 66.5309 46.3198 65.5428 46.3198C64.5635 46.3198 63.7461 45.5214 63.7461 44.5234C63.7461 43.5063 64.5828 42.7265 65.5428 42.7265C66.5125 42.7265 67.3392 43.5063 67.3392 44.5234" fill="#689F63"/>
<path fill-rule="evenodd" clip-rule="evenodd" d="M22.152 21.1285C22.152 20.6989 21.9259 20.3041 21.5551 20.0913L11.6723 14.4038C11.5052 14.3053 11.3178 14.2542 11.1284 14.2465H11.0262C10.8372 14.2542 10.65 14.3053 10.4804 14.4038L0.597566 20.0913C0.229133 20.3041 0 20.6989 0 21.1285L0.0216988 36.4433C0.0216988 36.6563 0.132299 36.8544 0.319666 36.959C0.503066 37.0689 0.729866 37.0689 0.912566 36.959L6.78604 33.5957C7.1575 33.3752 7.3836 32.9858 7.3836 32.5599V25.405C7.3836 24.9785 7.60947 24.5837 7.97953 24.3716L10.4804 22.9312C10.6668 22.8236 10.8705 22.7709 11.0787 22.7709C11.2824 22.7709 11.4912 22.8236 11.6723 22.9312L14.1724 24.3716C14.5425 24.5837 14.7693 24.9785 14.7693 25.405V32.5599C14.7693 32.9858 14.9984 33.3775 15.3676 33.5957L21.2394 36.959C21.4235 37.0689 21.6536 37.0689 21.836 36.959C22.018 36.8544 22.1326 36.6563 22.1326 36.4433L22.152 21.1285Z" fill="#333333"/>
<path fill-rule="evenodd" clip-rule="evenodd" d="M68.788 29.1028C68.788 29.2092 68.7311 29.3079 68.6387 29.3609L65.2442 31.3176C65.152 31.3706 65.0384 31.3706 64.9462 31.3176L61.5517 29.3609C61.4591 29.3079 61.4024 29.2092 61.4024 29.1028V25.1831C61.4024 25.0767 61.4591 24.978 61.5515 24.9245L64.9458 22.9641C65.0384 22.9106 65.152 22.9106 65.2447 22.9641L68.6389 24.9245C68.7311 24.978 68.788 25.0767 68.788 25.1831V29.1028ZM69.7053 0.0754789C69.5202 -0.0271877 69.2946 -0.0250897 69.1119 0.0822437C68.9297 0.189344 68.8174 0.385346 68.8174 0.596979V15.7636C68.8174 15.9127 68.7376 16.0509 68.6088 16.1255C68.4796 16.2002 68.3202 16.2002 68.191 16.1255L65.7155 14.6994C65.3464 14.4864 64.8921 14.4868 64.5227 14.6996L54.6362 20.4053C54.2666 20.6186 54.0391 21.0127 54.0391 21.4392V32.853C54.0391 33.2795 54.2666 33.6734 54.6357 33.8871L64.522 39.597C64.8916 39.8103 65.3466 39.8103 65.7162 39.597L75.6042 33.8871C75.9733 33.6734 76.201 33.2795 76.201 32.853V4.40125C76.201 3.96865 75.9668 3.56965 75.5888 3.35871L69.7053 0.0754789Z" fill="#333333"/>
<path fill-rule="evenodd" clip-rule="evenodd" d="M102.625 25.0806C102.993 24.8671 103.219 24.4737 103.219 24.0483V21.2824C103.219 20.857 102.993 20.4634 102.624 20.2499L92.8012 14.5465C92.4316 14.3316 91.9755 14.3314 91.6049 14.5449L81.7219 20.2506C81.3525 20.4638 81.125 20.8577 81.125 21.2842V32.6949C81.125 33.1243 81.3553 33.5202 81.7279 33.7323L91.5496 39.3288C91.9118 39.5356 92.3558 39.5379 92.7203 39.3354L98.6609 36.0335C98.8495 35.9285 98.9668 35.7308 98.968 35.5157C98.9694 35.3003 98.8548 35.1011 98.6684 34.994L88.7226 29.2855C88.5368 29.1791 88.4225 28.9812 88.4225 28.7677V25.1916C88.4225 24.9784 88.5364 24.781 88.7214 24.6746L91.8168 22.89C92.0009 22.7836 92.2284 22.7836 92.4127 22.89L95.5095 24.6746C95.6946 24.781 95.8082 24.9784 95.8082 25.1916V28.0052C95.8082 28.2189 95.9225 28.4163 96.1076 28.5227C96.2926 28.6296 96.5206 28.6286 96.7051 28.5215L102.625 25.0806Z" fill="#333333"/>
<path fill-rule="evenodd" clip-rule="evenodd" d="M92.059 24.5462C92.1299 24.5051 92.2172 24.5051 92.2881 24.5462L94.1851 25.6405C94.2561 25.6815 94.2997 25.7571 94.2997 25.839V28.0296C94.2997 28.1117 94.2561 28.1871 94.1851 28.2281L92.2881 29.3227C92.2172 29.3638 92.1299 29.3638 92.059 29.3227L90.1634 28.2281C90.0925 28.1871 90.0488 28.1117 90.0488 28.0296V25.839C90.0488 25.7571 90.0925 25.6815 90.1634 25.6405L92.059 24.5462Z" fill="#689F63"/>
<path d="M37.5032 14.6044L27.672 20.2779C27.3042 20.49 27.0781 20.8817 27.0781 21.3062V32.6616C27.0781 33.0858 27.3042 33.4775 27.6717 33.6901L37.5028 39.368C37.8705 39.5801 38.3232 39.5801 38.6907 39.368L48.5196 33.6901C48.8869 33.4775 49.113 33.0858 49.113 32.6616V21.3057C49.113 20.8817 48.8869 20.49 48.5191 20.2779L38.6904 14.6044C38.5068 14.4984 38.3017 14.4452 38.0968 14.4452C37.8917 14.4452 37.6869 14.4984 37.5032 14.6044" fill="url(#paint0_linear)"/>
<path d="M27.3223 33.3828C27.4158 33.5053 27.5337 33.6103 27.6716 33.6901L36.1049 38.5607L37.5089 39.3681C37.7189 39.4892 37.9585 39.5405 38.194 39.5232C38.2726 39.5167 38.351 39.5022 38.4275 39.4801L48.7945 20.4968C48.7152 20.4116 48.6228 20.3376 48.519 20.2779L42.0818 16.5621L38.68 14.6044C38.5827 14.5484 38.4784 14.508 38.3713 14.4817L27.3223 33.3828Z" fill="url(#paint1_linear)"/>
<path d="M37.1744 12.5188L37.0391 12.5961H37.2197L37.1744 12.5188Z" fill="url(#paint2_linear)"/>
<path d="M37.9769 14.4516C37.8124 14.4679 37.6507 14.519 37.5025 14.6044L27.6992 20.2616L38.2676 39.5146C38.4141 39.4934 38.5576 39.4444 38.6899 39.3681L48.5188 33.6902C48.8224 33.5145 49.0296 33.2163 49.0924 32.8789L38.3175 14.4712C38.2379 14.4554 38.157 14.4474 38.076 14.4474C38.0429 14.4474 38.0098 14.4488 37.9769 14.4516" fill="url(#paint3_linear)"/>
<path d="M49.4596 33.5074L49.3945 33.3961V33.5452L49.4596 33.5074Z" fill="url(#paint4_linear)"/>
<path d="M48.5431 33.69L38.7018 39.3677C38.5665 39.4459 38.4188 39.4949 38.2676 39.5154L38.4636 39.8724L49.3945 33.5451V33.396L49.1243 32.9343C49.0434 33.2488 48.8296 33.5241 48.5431 33.69" fill="url(#paint5_linear)"/>
<path d="M48.5431 33.69L38.7018 39.3677C38.5665 39.4459 38.4188 39.4949 38.2676 39.5154L38.4636 39.8724L49.3945 33.5451V33.396L49.1243 32.9343C49.0434 33.2488 48.8296 33.5241 48.5431 33.69" fill="url(#paint6_linear)"/>
<defs>
<linearGradient id="paint0_linear" x1="42.0928" y1="18.8295" x2="33.211" y2="36.9483" gradientUnits="userSpaceOnUse">
<stop stop-color="#687E67"/>
<stop offset="0.528804" stop-color="#687E67"/>
<stop offset="1" stop-color="#83A178"/>
</linearGradient>
<linearGradient id="paint1_linear" x1="36.5991" y1="28.3119" x2="61.5208" y2="9.89842" gradientUnits="userSpaceOnUse">
<stop stop-color="#687E67"/>
<stop offset="0.137556" stop-color="#687E67"/>
<stop offset="0.697374" stop-color="#9BB48F"/>
<stop offset="0.908084" stop-color="#9BB48F"/>
<stop offset="1" stop-color="#9BB48F"/>
</linearGradient>
<linearGradient id="paint2_linear" x1="26.7291" y1="12.5574" x2="49.4601" y2="12.5574" gradientUnits="userSpaceOnUse">
<stop stop-color="#9BB48F"/>
<stop offset="0.0919165" stop-color="#9BB48F"/>
<stop offset="0.302626" stop-color="#9BB48F"/>
<stop offset="0.862444" stop-color="#687E67"/>
<stop offset="1" stop-color="#687E67"/>
</linearGradient>
<linearGradient id="paint3_linear" x1="26.7296" y1="26.9815" x2="49.4602" y2="26.9815" gradientUnits="userSpaceOnUse">
<stop stop-color="#9BB48F"/>
<stop offset="0.0919165" stop-color="#9BB48F"/>
<stop offset="0.302626" stop-color="#9BB48F"/>
<stop offset="0.862444" stop-color="#687E67"/>
<stop offset="1" stop-color="#687E67"/>
</linearGradient>
<linearGradient id="paint4_linear" x1="26.7285" y1="33.4705" x2="49.4597" y2="33.4705" gradientUnits="userSpaceOnUse">
<stop stop-color="#9BB48F"/>
<stop offset="0.0919165" stop-color="#9BB48F"/>
<stop offset="0.302626" stop-color="#9BB48F"/>
<stop offset="0.862444" stop-color="#687E67"/>
<stop offset="1" stop-color="#687E67"/>
</linearGradient>
<linearGradient id="paint5_linear" x1="26.7291" y1="36.4034" x2="49.4597" y2="36.4034" gradientUnits="userSpaceOnUse">
<stop stop-color="#9BB48F"/>
<stop offset="0.0919165" stop-color="#9BB48F"/>
<stop offset="0.302626" stop-color="#9BB48F"/>
<stop offset="0.862444" stop-color="#687E67"/>
<stop offset="1" stop-color="#687E67"/>
</linearGradient>
<linearGradient id="paint6_linear" x1="52.7713" y1="18.2923" x2="38.7525" y2="46.8906" gradientUnits="userSpaceOnUse">
<stop stop-color="#687E67"/>
<stop offset="0.528804" stop-color="#687E67"/>
<stop offset="1" stop-color="#83A178"/>
</linearGradient>
</defs>
</svg>
