<svg width="106" height="53" viewBox="0 0 106 53" fill="none" xmlns="http://www.w3.org/2000/svg">
<path d="M8.03374 11.7904H23.09C27.5091 11.8275 30.7114 13.1016 32.6968 15.6106C34.6821 18.1197 35.3372 21.5466 34.6631 25.8916C34.4012 27.877 33.8204 29.8242 32.9215 31.7343C32.0597 33.6444 30.8619 35.3669 29.326 36.9029C27.4529 38.8501 25.4495 40.086 23.3147 40.6107C21.1799 41.1354 18.9698 41.3973 16.6855 41.3973H9.94386L7.80902 52.0715H0L8.03374 11.7904V11.7904ZM14.6068 18.1949L11.236 35.0489C11.4607 35.086 11.6854 35.1051 11.9102 35.1051C12.172 35.1051 12.4349 35.1051 12.6967 35.1051C16.2922 35.1422 19.2888 34.7871 21.6855 34.0377C24.0821 33.2512 25.6933 30.5174 26.517 25.8354C27.1911 21.9028 26.517 19.6365 24.4945 19.0376C22.5091 18.4387 20.0192 18.1578 17.0225 18.1949C16.5731 18.232 16.1427 18.2511 15.7304 18.2511C15.3562 18.2511 14.963 18.2511 14.5506 18.2511L14.6068 18.1949" fill="black"/>
<path d="M43.5587 1.06006H51.3115L49.1205 11.7904H56.0868C59.907 11.8657 62.7531 12.6522 64.6262 14.15C66.5363 15.6478 67.0981 18.4949 66.3116 22.6894L62.5475 41.3973H54.6823L58.2778 23.5321C58.652 21.659 58.5396 20.3298 57.9407 19.5433C57.3418 18.7568 56.0497 18.3635 54.0643 18.3635L47.8283 18.3073L43.2216 41.3973H35.4688L43.5587 1.06006Z" fill="black"/>
<path d="M74.6373 11.7904H89.6935C94.1126 11.8275 97.3149 13.1016 99.3003 15.6106C101.286 18.1197 101.941 21.5466 101.267 25.8916C101.005 27.877 100.424 29.8242 99.525 31.7343C98.6632 33.6444 97.4654 35.3669 95.9295 36.9029C94.0564 38.8501 92.0531 40.086 89.9182 40.6107C87.7834 41.1354 85.5733 41.3973 83.289 41.3973H76.5474L74.4125 52.0715H66.6035L74.6373 11.7904V11.7904ZM81.2103 18.1949L77.8395 35.0489C78.0642 35.086 78.289 35.1051 78.5137 35.1051C78.7755 35.1051 79.0384 35.1051 79.3002 35.1051C82.8957 35.1422 85.8923 34.7871 88.289 34.0377C90.6856 33.2512 92.2968 30.5174 93.1205 25.8354C93.7946 21.9028 93.1205 19.6365 91.098 19.0376C89.1126 18.4387 86.6227 18.1578 83.626 18.1949C83.1766 18.232 82.7462 18.2511 82.3339 18.2511C81.9597 18.2511 81.5665 18.2511 81.1541 18.2511L81.2103 18.1949" fill="black"/>
</svg>
