<svg width="39" height="39" viewBox="0 0 39 39" fill="none" xmlns="http://www.w3.org/2000/svg">
<path d="M34.8947 0H3.99723C1.72853 0 0 1.72853 0 3.99723V35.0028C0 37.1634 1.72853 39 3.99723 39H35.0028C37.1634 39 39 37.2715 39 35.0028V3.99723C38.892 1.72853 37.1634 0 34.8947 0ZM10.2632 27.0083C6.37396 27.0083 3.241 23.8753 3.241 19.9861C3.241 16.097 6.37396 12.964 10.2632 12.964C14.1524 12.964 17.2853 16.097 17.2853 19.9861C17.2853 23.8753 14.1524 27.0083 10.2632 27.0083ZM28.6288 27.0083C24.7396 27.0083 21.6066 23.8753 21.6066 19.9861C21.6066 16.097 24.7396 12.964 28.6288 12.964C32.518 12.964 35.651 16.097 35.651 19.9861C35.651 23.8753 32.518 27.0083 28.6288 27.0083Z" fill="white"/>
</svg>
