<svg width="40" height="40" viewBox="0 0 40 40" fill="none" xmlns="http://www.w3.org/2000/svg">
<g clip-path="url(#clip0)">
<path fill-rule="evenodd" clip-rule="evenodd" d="M19.8827 0.212577C8.90253 0.212577 0 9.11511 0 20.0977C0 28.883 5.69698 36.3354 13.5985 38.966C14.5934 39.1479 14.956 38.5339 14.956 38.0065C14.956 37.5353 14.9389 36.2841 14.9291 34.6252C9.39813 35.8264 8.23115 31.9592 8.23115 31.9592C7.32661 29.6618 6.02291 29.0503 6.02291 29.0503C4.2175 27.8174 6.15963 27.8418 6.15963 27.8418C8.15546 27.9822 9.20526 29.8913 9.20526 29.8913C10.9789 32.9296 13.8598 32.052 14.9926 31.5429C15.1732 30.2588 15.6859 29.3823 16.2548 28.8855C11.8395 28.3838 7.19722 26.6772 7.19722 19.0577C7.19722 16.8873 7.97236 15.1124 9.24432 13.722C9.03925 13.2191 8.35688 11.1976 9.43841 8.45959C9.43841 8.45959 11.1083 7.92493 14.9071 10.4982C16.4928 10.0563 18.1945 9.83654 19.8851 9.82921C21.5733 9.83654 23.275 10.0563 24.8631 10.4982C28.6595 7.92493 30.3257 8.45959 30.3257 8.45959C31.4109 11.1976 30.7286 13.2191 30.5235 13.722C31.7979 15.1124 32.5681 16.8873 32.5681 19.0577C32.5681 26.6968 27.9185 28.3777 23.4886 28.8696C24.2027 29.4836 24.8387 30.697 24.8387 32.5525C24.8387 35.2099 24.8143 37.3547 24.8143 38.0065C24.8143 38.5387 25.172 39.1576 26.1815 38.9635C34.0769 36.3281 39.769 28.8806 39.769 20.0977C39.769 9.11511 30.8653 0.212577 19.8827 0.212577Z" fill="white"/>
</g>
<defs>
<clipPath id="clip0">
<rect width="40" height="40" fill="white"/>
</clipPath>
</defs>
</svg>
