<svg width="39" height="39" viewBox="0 0 39 39" fill="none" xmlns="http://www.w3.org/2000/svg">
<path d="M19.4999 27.1C23.6973 27.1 27.0999 23.6974 27.0999 19.5C27.0999 15.3027 23.6973 11.9 19.4999 11.9C15.3025 11.9 11.8999 15.3027 11.8999 19.5C11.8999 23.6974 15.3025 27.1 19.4999 27.1Z" fill="white"/>
<path d="M32 0H7C3.1 0 0 3.1 0 7V32C0 35.9 3.1 39 7 39H32C35.9 39 39 35.9 39 32V7C39 3.1 35.9 0 32 0ZM19.5 30C13.7 30 9 25.3 9 19.5C9 13.7 13.7 9 19.5 9C25.3 9 30 13.7 30 19.5C30 25.3 25.3 30 19.5 30ZM33.5 8C32.1 8 31 6.9 31 5.5C31 4.1 32.1 3 33.5 3C34.9 3 36 4.1 36 5.5C36 6.9 34.9 8 33.5 8Z" fill="white"/>
</svg>
