<svg width="40" height="40" viewBox="0 0 40 40" fill="none" xmlns="http://www.w3.org/2000/svg">
<path d="M1.31148 14.5055C1.31148 13.7772 1.89864 13.1868 2.62295 13.1868H8.74317C9.46748 13.1868 10.0546 13.7772 10.0546 14.5055V38.6813C10.0546 39.4096 9.46748 40 8.74317 40H2.62295C1.89864 40 1.31148 39.4096 1.31148 38.6813V14.5055Z" fill="white"/>
<path d="M10.929 5.49451C10.929 8.52904 8.48243 10.989 5.46448 10.989C2.44653 10.989 0 8.52904 0 5.49451C0 2.45997 2.44653 0 5.46448 0C8.48243 0 10.929 2.45997 10.929 5.49451Z" fill="white"/>
<path d="M13.7705 14.7253V38.4615C13.7705 39.6923 14.4991 40 14.8634 40H20.9836C21.8579 40 22.0765 38.9744 22.0765 38.4615V25.7143C22.2951 20.4396 26.4481 20.4396 26.4481 20.4396C31.0383 20.4396 31.2568 23.5165 31.2568 25.2747V39.1209C31.2568 39.8242 31.9854 40 32.3497 40H38.9071C39.7814 40 40 39.4139 40 39.1209L39.7814 23.956C39.5628 17.3626 37.5956 15.8242 37.5956 15.8242C37.5956 15.8242 36.5027 14.2857 33.6612 13.1868C32.7869 12.967 30.8197 12.7473 29.9454 12.7473C29.071 12.7473 27.6867 13.0403 27.1038 13.1868C24.6557 13.7143 22.7322 15.6044 22.0765 16.4835V14.2857C22.0765 13.4066 21.3479 13.1868 20.9836 13.1868H14.6448C13.9454 13.3626 13.7705 14.2857 13.7705 14.7253Z" fill="white"/>
</svg>
