<svg width="56" height="56" viewBox="0 0 56 56" fill="none" xmlns="http://www.w3.org/2000/svg">
<circle cx="28" cy="28" r="28" fill="#5467B7"/>
<path d="M22.3574 32.5098L26.4199 20.7812H28.4707L23.1973 35H21.5371L16.2734 20.7812H18.3145L22.3574 32.5098ZM34.5742 28.6621C32.9661 28.1999 31.7943 27.6335 31.0586 26.9629C30.3294 26.2858 29.9648 25.4525 29.9648 24.4629C29.9648 23.3431 30.4108 22.4186 31.3027 21.6895C32.2012 20.9538 33.3665 20.5859 34.7988 20.5859C35.7754 20.5859 36.6445 20.7747 37.4062 21.1523C38.1745 21.5299 38.7669 22.0508 39.1836 22.7148C39.6068 23.3789 39.8184 24.1048 39.8184 24.8926H37.9336C37.9336 24.0332 37.6602 23.3594 37.1133 22.8711C36.5664 22.3763 35.7949 22.1289 34.7988 22.1289C33.8743 22.1289 33.1517 22.334 32.6309 22.7441C32.1165 23.1478 31.8594 23.7109 31.8594 24.4336C31.8594 25.013 32.1035 25.5046 32.5918 25.9082C33.0866 26.3053 33.9232 26.6699 35.1016 27.002C36.2865 27.334 37.2109 27.7018 37.875 28.1055C38.5456 28.5026 39.0404 28.9681 39.3594 29.502C39.6849 30.0358 39.8477 30.6641 39.8477 31.3867C39.8477 32.5391 39.3984 33.4635 38.5 34.1602C37.6016 34.8503 36.4004 35.1953 34.8965 35.1953C33.9199 35.1953 33.0085 35.0098 32.1621 34.6387C31.3158 34.2611 30.6615 33.7467 30.1992 33.0957C29.7435 32.4447 29.5156 31.7057 29.5156 30.8789H31.4004C31.4004 31.7383 31.7161 32.4186 32.3477 32.9199C32.9857 33.4147 33.8353 33.6621 34.8965 33.6621C35.8861 33.6621 36.6445 33.4603 37.1719 33.0566C37.6992 32.653 37.9629 32.1029 37.9629 31.4062C37.9629 30.7096 37.7188 30.1725 37.2305 29.7949C36.7422 29.4108 35.8568 29.0332 34.5742 28.6621Z" fill="#253160"/>
</svg>
