<svg width="26" height="27" viewBox="0 0 26 27" fill="none" xmlns="http://www.w3.org/2000/svg">
<path d="M4.09 6.04405C4.36163 3.67126 7.52092 2.20743 9.06662 1.77212C9.77896 1.90911 10.2992 2.56488 10.4703 2.87565C11.4695 4.40157 11.8314 6.06763 11.8874 6.70992C11.6545 8.24139 10.9464 8.80242 10.6215 8.8915C9.14374 9.21358 8.57493 10.0641 8.47525 10.4491C8.3093 13.8728 11.297 17.3827 12.8116 18.7096C13.3866 19.2134 15.1816 18.256 16.1771 17.6138C17.403 17.0008 18.5677 17.7199 18.9968 18.1561L21.3848 21.3434C21.9722 22.29 21.4146 22.789 21.0615 23.0243L18.5443 24.5105C17.1884 25.1592 15.4924 24.9088 14.8139 24.7025C2.83587 19.3678 3.75047 9.01003 4.09 6.04405Z" stroke="white"/>
</svg>
