<svg width="22" height="22" viewBox="0 0 22 22" fill="none" xmlns="http://www.w3.org/2000/svg">
<path d="M10.0833 0V2.75H11.9167V0H10.0833ZM3.87077 2.57454L2.57454 3.87077L4.51888 5.8151L5.8151 4.51888L3.87077 2.57454ZM18.1292 2.57454L16.1849 4.51888L17.4811 5.8151L19.4255 3.87077L18.1292 2.57454ZM11 4.58333C7.46703 4.58333 4.58333 7.46703 4.58333 11C4.58333 14.533 7.46703 17.4167 11 17.4167C14.533 17.4167 17.4167 14.533 17.4167 11C17.4167 7.46703 14.533 4.58333 11 4.58333ZM11 6.41667C13.5422 6.41667 15.5833 8.45784 15.5833 11C15.5833 13.5422 13.5422 15.5833 11 15.5833C8.45784 15.5833 6.41667 13.5422 6.41667 11C6.41667 8.45784 8.45784 6.41667 11 6.41667ZM0 10.0833V11.9167H2.75V10.0833H0ZM19.25 10.0833V11.9167H22V10.0833H19.25ZM4.51888 16.1849L2.57454 18.1292L3.87077 19.4255L5.8151 17.4811L4.51888 16.1849ZM17.4811 16.1849L16.1849 17.4811L18.1292 19.4255L19.4255 18.1292L17.4811 16.1849ZM10.0833 19.25V22H11.9167V19.25H10.0833Z" fill="#FFF500"/>
</svg>
